<svg width="24" height="24" viewBox="0 0 24 24" fill="none" xmlns="http://www.w3.org/2000/svg">
<path d="M16.7385 8.44217C16.7901 8.45706 16.8387 8.48209 16.8815 8.51584C16.9243 8.54959 16.9604 8.59139 16.9878 8.63884C17.0152 8.6863 17.0333 8.73848 17.0412 8.7924C17.049 8.84632 17.0464 8.90092 17.0335 8.95306L16.6188 10.6356C16.606 10.6878 16.5832 10.7366 16.5516 10.7791C16.52 10.8216 16.4803 10.857 16.4347 10.8833C16.3891 10.9096 16.3386 10.9263 16.286 10.9324C16.2334 10.9385 16.1797 10.9339 16.1281 10.9189L14.4637 10.4367C14.3595 10.4066 14.2699 10.3358 14.2146 10.24C14.1592 10.1441 14.1427 10.0312 14.1687 9.92584C14.1947 9.82053 14.2609 9.73152 14.3529 9.67839C14.445 9.62526 14.5552 9.61237 14.6594 9.64255L15.3722 9.84966C14.9198 9.1348 14.2696 8.56988 13.508 8.23004C12.7463 7.89019 11.9094 7.79154 11.1085 7.94719C10.3076 8.10284 9.58062 8.50542 9.02435 9.10139C8.46807 9.69735 8.10883 10.4585 7.9944 11.2835C7.97943 11.3912 7.92288 11.487 7.83718 11.5498C7.75149 11.6125 7.64368 11.637 7.53747 11.618C7.43125 11.5989 7.33534 11.5378 7.27082 11.4482C7.20631 11.3585 7.17847 11.2475 7.19344 11.1398C7.33123 10.1462 7.76487 9.23 8.4363 8.51379C9.10773 7.79757 9.98489 7.31556 10.9503 7.1323C11.9157 6.94904 12.9234 7.07327 13.8382 7.48837C14.7531 7.90346 15.5315 8.5896 16.0693 9.4549L16.2489 8.72579C16.2749 8.62063 16.341 8.53175 16.4329 8.4787C16.5248 8.42565 16.6345 8.41205 16.7385 8.44217ZM16.4588 12.3848C16.5649 12.4039 16.6607 12.4651 16.7251 12.5547C16.7895 12.6443 16.8173 12.7552 16.8023 12.8629C16.6645 13.8564 16.2309 14.7726 15.5594 15.4888C14.888 16.205 14.0109 16.6871 13.0454 16.8703C12.08 17.0536 11.0724 16.9293 10.1575 16.5142C9.24267 16.0992 8.46425 15.413 7.92649 14.5477L7.74681 15.2768C7.7194 15.3803 7.65287 15.4672 7.56154 15.5188C7.47021 15.5705 7.36139 15.5827 7.25852 15.5529C7.15565 15.5231 7.06696 15.4536 7.01155 15.3595C6.95615 15.2653 6.93845 15.154 6.96229 15.0496L7.37693 13.367C7.38972 13.3148 7.41257 13.2661 7.44417 13.2236C7.47576 13.1811 7.51549 13.1456 7.56107 13.1193C7.60665 13.093 7.65719 13.0763 7.70979 13.0702C7.76239 13.0641 7.81602 13.0687 7.8676 13.0837L9.53208 13.5659C9.58367 13.5808 9.63222 13.6059 9.67496 13.6397C9.7177 13.6734 9.75379 13.7152 9.78118 13.7627C9.80857 13.8101 9.82672 13.8623 9.83459 13.9161C9.84246 13.97 9.83989 14.0246 9.82704 14.0768C9.81419 14.1289 9.79131 14.1776 9.75969 14.2201C9.72808 14.2625 9.68836 14.2979 9.6428 14.3242C9.59723 14.3505 9.54672 14.3672 9.49414 14.3734C9.44157 14.3795 9.38796 14.375 9.33637 14.3601L8.62356 14.153C9.07591 14.8678 9.72614 15.4327 10.4878 15.7726C11.2494 16.1124 12.0863 16.2111 12.8873 16.0554C13.6882 15.8998 14.4151 15.4972 14.9714 14.9012C15.5277 14.3053 15.8869 13.5442 16.0013 12.7192C16.0088 12.6657 16.0265 12.6147 16.0535 12.569C16.0805 12.5233 16.1163 12.4837 16.1588 12.4527C16.2013 12.4216 16.2496 12.3996 16.3011 12.388C16.3526 12.3763 16.4062 12.3753 16.4588 12.3848Z" fill="#ACACAC"/>
</svg>
