<svg width="24" height="24" viewBox="0 0 24 24" fill="none" xmlns="http://www.w3.org/2000/svg">
<path fill-rule="evenodd" clip-rule="evenodd" d="M10.3081 3.0761C11.3437 2.07886 12.9878 2.09369 14.0044 3.11028L20.6255 9.73235C21.1203 10.2271 21.3989 10.8988 21.3989 11.5986V19.0234C21.3988 20.4803 20.2172 21.6611 18.7603 21.6611H15.1431C15.1398 21.6611 15.1366 21.662 15.1333 21.662C15.1301 21.662 15.1267 21.6611 15.1235 21.6611H9.20654C9.20329 21.6611 9.20004 21.662 9.19678 21.662C9.19359 21.662 9.19018 21.6611 9.18701 21.6611H5.23877C3.78191 21.6609 2.60122 20.4802 2.60107 19.0234V11.62C2.60108 10.9032 2.89238 10.217 3.40869 9.71965L10.3081 3.0761ZM13.0708 4.04387C12.5625 3.53558 11.7409 3.52768 11.2231 4.02629L4.32373 10.6698C4.06564 10.9185 3.91944 11.2617 3.91943 11.62V19.0234C3.91958 19.7517 4.51046 20.3425 5.23877 20.3427H8.5376V14.7363C8.53771 13.2793 9.71837 12.0987 11.1753 12.0986H13.1538C14.6107 12.0987 15.7924 13.2793 15.7925 14.7363V20.3427H18.7603C19.4887 20.3427 20.0794 19.7518 20.0796 19.0234V11.5986C20.0796 11.2487 19.9403 10.9124 19.6929 10.665L13.0708 4.04387ZM11.1753 13.4169C10.4469 13.417 9.85607 14.0079 9.85596 14.7363V20.3427H14.4731V14.7363C14.473 14.0079 13.8822 13.4171 13.1538 13.4169H11.1753Z" fill="#111111"/>
</svg>
