<svg width="24" height="24" viewBox="0 0 24 24" fill="none" xmlns="http://www.w3.org/2000/svg">
<path fill-rule="evenodd" clip-rule="evenodd" d="M9.23486 3.76778C9.34953 3.74542 9.46906 3.75388 9.58057 3.79317L14.9487 5.68673L18.5015 4.22481C19.8037 3.68889 21.2338 4.64668 21.2339 6.05489V16.9494C21.2338 17.827 20.6548 18.6001 19.813 18.8479L15.1538 20.218C15.0443 20.2502 14.928 20.2529 14.8169 20.2268L9.31885 18.9338L4.96338 19.4182C3.79125 19.5484 2.76611 18.6307 2.76611 17.4514V7.62618C2.76616 6.81027 3.26648 6.07729 4.02686 5.78146L9.12256 3.80001L9.23486 3.76778ZM10.021 17.7434L14.3081 18.7522V6.85958L10.021 5.34688V17.7434ZM19.9146 6.05489C19.9144 5.58571 19.4383 5.2673 19.0044 5.44552L15.6274 6.83419V18.7033L19.4409 17.5822C19.7213 17.4996 19.9144 17.2418 19.9146 16.9494V6.05489ZM4.50537 7.01095C4.25188 7.10953 4.08451 7.35421 4.08447 7.62618V17.4514C4.08447 17.8444 4.42636 18.1508 4.81689 18.1076L8.70166 17.675V5.37813L4.50537 7.01095Z" fill="white"/>
</svg>
