<svg width="24" height="24" viewBox="0 0 24 24" fill="none" xmlns="http://www.w3.org/2000/svg">
<path d="M18.9258 4.41504C20.3825 4.41542 21.5634 5.59598 21.5635 7.05273V16.9463C21.5634 18.4031 20.3825 19.5846 18.9258 19.585H5.07422C3.61728 19.5848 2.43662 18.4032 2.43652 16.9463V7.05273C2.43664 5.59581 3.61729 4.41515 5.07422 4.41504H18.9258ZM13.501 13.0801C12.5975 13.7056 11.4005 13.7056 10.4971 13.0801L3.75488 8.41113V16.9463C3.75498 17.6747 4.34583 18.2655 5.07422 18.2656H18.9258C19.6539 18.2652 20.245 17.6745 20.2451 16.9463V8.41113L13.501 13.0801ZM5.07422 5.7334C4.42305 5.7335 3.88193 6.20563 3.77441 6.82617C3.78249 6.83126 3.79188 6.83436 3.7998 6.83984L11.248 11.9961C11.6997 12.3088 12.2983 12.3087 12.75 11.9961L20.1982 6.83984C20.2063 6.83426 20.2154 6.83037 20.2236 6.8252C20.1157 6.20538 19.5763 5.73374 18.9258 5.7334H5.07422Z" fill="white"/>
</svg>
