<svg width="20" height="16" viewBox="0 0 20 16" fill="none" xmlns="http://www.w3.org/2000/svg">
<path d="M16.4893 0C17.946 0.000382668 19.1268 1.18094 19.127 2.6377V12.5312C19.1269 13.988 17.946 15.1695 16.4893 15.1699H2.6377C1.18076 15.1698 9.70303e-05 13.9882 0 12.5312V2.6377C0.000111848 1.18077 1.18077 0.000110688 2.6377 0H16.4893ZM11.0645 8.66504C10.161 9.29052 8.96402 9.29052 8.06055 8.66504L1.31836 3.99609V12.5312C1.31846 13.2596 1.90931 13.8505 2.6377 13.8506H16.4893C17.2174 13.8502 17.8085 13.2595 17.8086 12.5312V3.99609L11.0645 8.66504ZM2.6377 1.31836C1.98653 1.31846 1.44541 1.79059 1.33789 2.41113C1.34596 2.41622 1.35536 2.41932 1.36328 2.4248L8.81152 7.58105C9.26321 7.89376 9.86176 7.89368 10.3135 7.58105L17.7617 2.4248C17.7698 2.41922 17.7789 2.41533 17.7871 2.41016C17.6791 1.79034 17.1398 1.3187 16.4893 1.31836H2.6377Z" fill="#111111"/>
</svg>
