<svg width="24" height="24" viewBox="0 0 24 24" fill="none" xmlns="http://www.w3.org/2000/svg">
<path d="M15.6274 13.814C18.1772 13.814 20.2444 15.8805 20.2446 18.4302V20.7388C20.2444 21.1029 19.9486 21.3989 19.5845 21.3989C19.2205 21.3987 18.9255 21.1027 18.9253 20.7388V18.4302C18.9251 16.609 17.4486 15.1324 15.6274 15.1323H8.37158C6.55062 15.1326 5.07395 16.6092 5.07373 18.4302V20.7388C5.07354 21.1029 4.7787 21.3989 4.41455 21.3989C4.05047 21.3988 3.75556 21.1028 3.75537 20.7388V18.4302C3.75559 15.8806 5.82207 13.8143 8.37158 13.814H15.6274ZM11.9995 2.60107C14.3672 2.60107 16.2866 4.52047 16.2866 6.88818C16.2866 9.2559 14.3672 11.1753 11.9995 11.1753C9.63199 11.1751 7.71247 9.25575 7.7124 6.88818C7.71247 4.52061 9.63198 2.60131 11.9995 2.60107ZM11.9995 3.92041C10.3605 3.92065 9.0318 5.24916 9.03174 6.88818C9.03181 8.5272 10.3605 9.85572 11.9995 9.85596C13.6387 9.85596 14.9672 8.52735 14.9673 6.88818C14.9672 5.24901 13.6387 3.92041 11.9995 3.92041Z" fill="white"/>
</svg>
