<svg width="36" height="36" viewBox="0 0 36 36" fill="none" xmlns="http://www.w3.org/2000/svg">
<path d="M14.2079 23.0713L27.3615 9.48107C27.6719 9.16036 28.0341 9 28.448 9C28.8618 9 29.224 9.16036 29.5344 9.48107C29.8448 9.80178 30 10.1829 30 10.6244C30 11.0659 29.8448 11.4465 29.5344 11.7661L15.2944 26.5189C14.984 26.8396 14.6218 27 14.2079 27C13.7941 27 13.4319 26.8396 13.1215 26.5189L6.44771 19.6236C6.1373 19.3029 5.9883 18.9223 6.00072 18.4819C6.01313 18.0414 6.17506 17.6603 6.48651 17.3385C6.79795 17.0167 7.16682 16.8564 7.59312 16.8575C8.01941 16.8585 8.38776 17.0189 8.69817 17.3385L14.2079 23.0713Z" fill="white"/>
</svg>
