<svg width="21" height="21" viewBox="0 0 21 21" fill="none" xmlns="http://www.w3.org/2000/svg">
<path d="M6.125 8.45862C6.125 7.83971 6.37086 7.24614 6.8085 6.8085C7.24614 6.37086 7.83971 6.125 8.45862 6.125H16.0414C16.3478 6.125 16.6513 6.18536 16.9344 6.30264C17.2175 6.41991 17.4748 6.59181 17.6915 6.8085C17.9082 7.0252 18.0801 7.28246 18.1974 7.56559C18.3146 7.84871 18.375 8.15217 18.375 8.45862V16.0414C18.375 16.3478 18.3146 16.6513 18.1974 16.9344C18.0801 17.2175 17.9082 17.4748 17.6915 17.6915C17.4748 17.9082 17.2175 18.0801 16.9344 18.1974C16.6513 18.3146 16.3478 18.375 16.0414 18.375H8.45862C8.15217 18.375 7.84871 18.3146 7.56559 18.1974C7.28246 18.0801 7.0252 17.9082 6.8085 17.6915C6.59181 17.4748 6.41991 17.2175 6.30264 16.9344C6.18536 16.6513 6.125 16.3478 6.125 16.0414V8.45862Z" stroke="#94B872" stroke-width="1.4" stroke-linecap="round" stroke-linejoin="round"/>
<path d="M3.5105 14.6449C3.24187 14.4923 3.01844 14.2712 2.86291 14.0043C2.70738 13.7373 2.6253 13.434 2.625 13.125V4.375C2.625 3.4125 3.4125 2.625 4.375 2.625H13.125C13.7812 2.625 14.1382 2.96187 14.4375 3.5" stroke="#94B872" stroke-width="1.4" stroke-linecap="round" stroke-linejoin="round"/>
</svg>
