<svg width="24" height="24" viewBox="0 0 24 24" fill="none" xmlns="http://www.w3.org/2000/svg">
<path fill-rule="evenodd" clip-rule="evenodd" d="M9.23438 3.76779C9.34906 3.74541 9.46855 3.75388 9.58008 3.79318L14.9482 5.68674L18.501 4.22482C19.8032 3.68876 21.2334 4.64658 21.2334 6.0549V16.9494C21.2332 17.8269 20.6543 18.6002 19.8125 18.8479L15.1533 20.218C15.0438 20.2502 14.9275 20.2528 14.8164 20.2268L9.31836 18.9338L4.96289 19.4182C3.79086 19.5484 2.76579 18.6306 2.76562 17.4514V7.62619C2.76562 6.81024 3.26596 6.07731 4.02637 5.78147L9.12207 3.80002L9.23438 3.76779ZM10.0205 17.7434L14.3076 18.7522V6.85959L10.0205 5.34689V17.7434ZM19.9141 6.0549C19.914 5.58561 19.4379 5.26717 19.0039 5.44553L15.627 6.8342V18.7033L19.4404 17.5822C19.7208 17.4997 19.9138 17.2417 19.9141 16.9494V6.0549ZM4.50488 7.01096C4.25136 7.10955 4.08398 7.35417 4.08398 7.62619V17.4514C4.08415 17.8442 4.42597 18.1508 4.81641 18.1076L8.70117 17.675V5.37814L4.50488 7.01096Z" fill="#ACACAC"/>
</svg>
