<svg width="36" height="36" viewBox="0 0 36 36" fill="none" xmlns="http://www.w3.org/2000/svg">
<path d="M17.5869 5.50488C17.9394 4.71494 19.0606 4.71495 19.4131 5.50488L21.9512 11.1992C22.3872 12.1773 23.312 12.8485 24.377 12.9609L30.5762 13.6162C31.4369 13.7071 31.7835 14.7741 31.1406 15.3535L26.5098 19.5264C25.7143 20.2433 25.3618 21.3304 25.584 22.3779L26.877 28.4766C27.0561 29.3229 26.149 29.982 25.3994 29.5498L19.999 26.4355C19.0714 25.9005 17.9286 25.9005 17.001 26.4355L11.6006 29.5498C10.851 29.982 9.94387 29.3229 10.123 28.4766L11.416 22.3779C11.6382 21.3304 11.2857 20.2433 10.4902 19.5264L5.85938 15.3535C5.21646 14.7741 5.56315 13.7071 6.42383 13.6162L12.623 12.9609C13.688 12.8485 14.6128 12.1773 15.0488 11.1992L17.5869 5.50488Z" stroke="white" stroke-width="2"/>
</svg>
