<svg width="47" height="45" viewBox="0 0 47 45" fill="none" xmlns="http://www.w3.org/2000/svg">
<g filter="url(#filter0_d_376_4971)">
<path d="M21.5227 0.968718C22.3 -0.322922 24.1726 -0.322921 24.9499 0.968719L30.0409 9.42821C30.3202 9.89223 30.7757 10.2232 31.3033 10.3454L40.922 12.5731C42.3906 12.9132 42.9692 14.6941 41.981 15.8326L35.5088 23.2885C35.1538 23.6975 34.9798 24.233 35.0266 24.7725L35.8803 34.6088C36.0106 36.1106 34.4956 37.2113 33.1076 36.6233L24.0165 32.7718C23.5178 32.5605 22.9548 32.5605 22.4561 32.7718L13.3651 36.6233C11.977 37.2113 10.4621 36.1106 10.5924 34.6088L11.4461 24.7725C11.4929 24.233 11.3189 23.6975 10.9639 23.2885L4.49163 15.8326C3.50341 14.6941 4.08207 12.9132 5.5507 12.5731L15.1694 10.3454C15.697 10.2232 16.1525 9.89223 16.4317 9.42821L21.5227 0.968718Z" fill="#DADADA"/>
<path d="M21.9512 1.22675C22.5342 0.258016 23.9385 0.258015 24.5215 1.22675L29.6123 9.68573C29.9614 10.2657 30.531 10.6795 31.1904 10.8322L40.8096 13.0598C41.9108 13.315 42.3446 14.6513 41.6035 15.5051L35.1309 22.9611C34.6873 23.4723 34.4698 24.1414 34.5283 24.8156L35.3818 34.6516C35.4796 35.7779 34.3437 36.6041 33.3027 36.1633L24.2119 32.3117C23.5886 32.0476 22.8841 32.0476 22.2607 32.3117L13.1699 36.1633C12.1289 36.6041 10.9931 35.7779 11.0908 34.6516L11.9443 24.8156C12.0028 24.1414 11.7853 23.4723 11.3418 22.9611L4.86914 15.5051C4.12805 14.6513 4.56185 13.315 5.66309 13.0598L15.2822 10.8322C15.9417 10.6795 16.5113 10.2657 16.8604 9.68573L21.9512 1.22675Z" stroke="#ACACAC"/>
</g>
<defs>
<filter id="filter0_d_376_4971" x="0" y="0" width="46.4727" height="44.7844" filterUnits="userSpaceOnUse" color-interpolation-filters="sRGB">
<feFlood flood-opacity="0" result="BackgroundImageFix"/>
<feColorMatrix in="SourceAlpha" type="matrix" values="0 0 0 0 0 0 0 0 0 0 0 0 0 0 0 0 0 0 127 0" result="hardAlpha"/>
<feOffset dy="4"/>
<feGaussianBlur stdDeviation="2"/>
<feComposite in2="hardAlpha" operator="out"/>
<feColorMatrix type="matrix" values="0 0 0 0 0 0 0 0 0 0 0 0 0 0 0 0 0 0 0.25 0"/>
<feBlend mode="normal" in2="BackgroundImageFix" result="effect1_dropShadow_376_4971"/>
<feBlend mode="normal" in="SourceGraphic" in2="effect1_dropShadow_376_4971" result="shape"/>
</filter>
</defs>
</svg>
