<svg width="7" height="7" viewBox="0 0 7 7" fill="none" xmlns="http://www.w3.org/2000/svg">
<path d="M5.80365 0.146428C5.99892 -0.0487965 6.31544 -0.0488219 6.51069 0.146428C6.7059 0.34168 6.7059 0.658206 6.51069 0.853459L4.0351 3.32807L6.51069 5.80365C6.7056 5.99893 6.7058 6.31553 6.51069 6.51069C6.31553 6.70584 5.99894 6.70561 5.80365 6.51069L3.32807 4.0351L0.853459 6.51069C0.658183 6.7056 0.341581 6.7058 0.146428 6.51069C-0.0487229 6.31553 -0.0484998 5.99894 0.146428 5.80365L2.62104 3.32807L0.146428 0.853459C-0.0487966 0.658194 -0.0488219 0.341677 0.146428 0.146428C0.34168 -0.0487842 0.658206 -0.0487842 0.853459 0.146428L3.32807 2.62104L5.80365 0.146428Z" fill="#4E4E4E"/>
</svg>
