<svg width="15" height="18" viewBox="0 0 15 18" fill="none" xmlns="http://www.w3.org/2000/svg">
<path d="M9.25 16.5C9.25 17 8.85 18 7.25 18C5.25 18 4.75 17 4.75 16.5H9.25ZM8.75 0.414062C10.1231 0.716003 11.3608 1.41377 12.3281 2.33008C13.6325 3.56579 14.5 5.25304 14.5 7V15.75H0V7C0 4.9845 1.01006 3.28886 2.38965 2.11621C3.36044 1.29107 4.54217 0.701367 5.75 0.425781V0H8.75V0.414062ZM7.25 1.75C5.94426 1.75 4.4877 2.30054 3.36035 3.25879C2.24002 4.21112 1.5 5.51556 1.5 7V14.25H13V7C13 5.74709 12.3673 4.43417 11.2969 3.41992C10.231 2.41013 8.78503 1.75 7.25 1.75Z" fill="#1B1B1B"/>
</svg>
