<svg width="80" height="107" viewBox="0 0 80 107" fill="none" xmlns="http://www.w3.org/2000/svg">
<path d="M27.7134 54.3518C21.3172 46.8607 15.0527 39.8142 11.443 41.4894C8.39305 35.7764 5.38016 31.1501 2.61011 33.1216C0.156994 34.8174 0.58094 37.0647 1.83631 39.4767C3.69673 42.5019 4.91917 43.959 5.55715 43.9713C1.12836 47.3217 0.864941 51.59 4.31824 56.6773C6.15397 58.83 8.24076 59.5956 10.5169 59.3116C14.3077 63.9297 18.1603 67.1854 22.1404 67.8357C18.9546 77.1214 17.4194 86.1724 17.8022 94.9518C12.0892 97.8947 8.56181 100.706 13.7726 103.011C23.4328 104.2 34.5048 105.987 37.637 104.406L41.3579 99.2941C44.0538 97.2032 46.0542 96.7834 47.0914 98.6726L49.1041 105.18C53.2695 106.604 64.3867 105.435 75.1377 104.406C80.3814 104.147 80.1468 101.34 73.8988 95.7297C73.269 91.1486 72.4458 87.1191 71.2645 84.1062C77.1051 82.7397 79.336 78.3767 78.237 71.2438C77.3397 64.2631 73.092 57.6652 64.4444 51.5653L27.7217 54.3559L27.7134 54.3518Z" fill="white"/>
<path d="M55.3275 106.662C52.5616 106.662 50.3142 106.464 48.8284 105.954L48.4332 105.818L46.3217 98.9936C46.0172 98.4709 45.6961 98.3515 45.478 98.3063C44.9388 98.191 43.8851 98.3762 41.9465 99.8662L38.1803 105.044L38.0034 105.135C35.1181 106.592 26.8532 105.522 18.1026 104.386C16.6126 104.192 15.1227 103.999 13.6656 103.822L13.5462 103.805L13.4351 103.756C11.4306 102.871 10.4387 101.821 10.4016 100.549C10.3481 98.7055 12.2538 96.9274 16.9543 94.4578C16.6661 86.2588 18.0491 77.5124 21.062 68.4449C17.6334 67.5558 14.0525 64.8352 10.1588 60.1718C7.6851 60.3405 5.51186 59.3486 3.68849 57.2124L3.63498 57.1424C1.16951 53.5121 -0.633283 48.3836 4.14948 44.066C3.47446 43.4157 2.53602 42.1932 1.13247 39.913L1.10366 39.8636C0.0046925 37.7521 -1.08604 34.6816 2.14088 32.4548C2.9188 31.8992 3.77081 31.7181 4.66397 31.928C7.03066 32.4836 9.2574 35.7394 11.8381 40.5015C15.7853 39.666 21.3213 45.6259 28.0633 53.5039L64.6666 50.7256L64.9095 50.8944C73.3225 56.8296 78.0806 63.6415 79.0437 71.1408C80.1674 78.4302 77.9159 82.9825 72.3388 84.67C73.269 87.3248 74.0305 90.8275 74.6602 95.3181C78.6033 98.8948 80.1468 101.389 79.5212 103.159C79.0725 104.431 77.6484 105.106 75.1665 105.229L73.59 105.382C66.7946 106.036 60.242 106.666 55.3234 106.666L55.3275 106.662ZM49.7545 104.517C53.8252 105.629 63.7899 104.665 73.4378 103.739L75.0512 103.583C76.7305 103.497 77.7801 103.143 77.9736 102.603C78.1053 102.229 78.167 100.665 73.3431 96.3388L73.1167 96.1371L73.0756 95.8367C72.3882 90.8193 71.5403 87.082 70.4907 84.4025L70.145 83.5176L71.0711 83.2994C76.3889 82.0564 78.4634 78.1503 77.4179 71.3631C76.5083 64.2919 72.1865 58.0932 64.2056 52.4008L27.3594 55.1997L27.0878 54.8828C22.2762 49.2521 15.0074 40.7403 11.7887 42.2344L11.0808 42.5637L10.7145 41.8763C9.4632 39.5343 6.53263 34.0477 4.28942 33.5209C3.86548 33.4221 3.48681 33.5085 3.08756 33.7925C1.35473 34.9903 1.20656 36.472 2.55248 39.0692C4.66397 42.4978 5.44601 43.0576 5.62711 43.1481L7.94029 43.1975L6.04694 44.6299C2.09149 47.6181 1.73752 51.3965 4.96856 56.1793C6.53263 57.9986 8.31484 58.76 10.4099 58.4966L10.8585 58.439L11.1466 58.7888C15.242 63.7774 18.8805 66.4692 22.2639 67.0208L23.227 67.1772L22.9101 68.0991C19.6914 77.4836 18.2467 86.5058 18.613 94.9147L18.6377 95.4415L18.1685 95.6844C13.0647 98.3145 12.0192 99.7592 12.0439 100.504C12.0604 101.039 12.7477 101.644 13.9867 102.208C15.4067 102.385 16.8596 102.57 18.3084 102.76C25.8818 103.739 34.4389 104.847 37.0855 103.748L40.7487 98.7137L40.8393 98.6438C42.8726 97.0674 44.4984 96.4294 45.8072 96.701C46.651 96.8739 47.3219 97.4049 47.7994 98.2775L47.8652 98.4297L49.7503 104.521L49.7545 104.517Z" fill="#4E5E84"/>
<path d="M23.0954 47.4401C17.0943 50.9263 13.6492 57.1003 12.1386 65.3034C13.1594 66.3242 15.2832 67.4519 19.6832 68.7978C16.7897 74.9677 14.9745 81.1005 16.1106 87.1386C37.777 92.6952 57.5337 93.2426 74.545 86.583C72.7751 80.2238 70.8612 74.4902 68.0335 72.7698C72.4171 72.5063 75.8992 69.2876 78.5951 63.48C74.9155 57.9111 70.5484 53.5934 65.0989 51.2515L23.0995 47.4401H23.0954Z" fill="#C5F598"/>
<path d="M47.0915 92.2878C37.5671 92.2878 27.2154 90.8389 15.9047 87.9372L15.3985 87.8055L15.2997 87.291C14.3242 82.0966 15.3532 76.3631 18.5431 69.3042C14.954 68.1517 12.7231 67.0568 11.5583 65.8879L11.2537 65.5833L11.3319 65.1594C12.9536 56.3677 16.7691 50.169 22.6837 46.7322L22.9101 46.6005L65.3005 50.4489L65.4199 50.5024C70.6636 52.7538 75.1953 56.8534 79.2784 63.0314L79.5336 63.4142L79.3401 63.8299C76.8541 69.1889 73.693 72.3706 69.9186 73.3131C72.0384 75.6963 73.6189 80.1827 75.3394 86.3649L75.5369 87.0811L74.8455 87.3527C66.4365 90.6455 57.2332 92.2919 47.0915 92.2919V92.2878ZM16.8308 86.4719C39.2711 92.156 57.8424 92.0285 73.553 86.085C71.9314 80.3514 70.0833 74.9801 67.6096 73.4736L65.3623 72.1071L67.9883 71.9507C71.8285 71.7202 75.0801 68.8967 77.6526 63.5542C73.8494 57.9112 69.6717 54.1533 64.893 52.0665L23.2888 48.2921C17.9627 51.482 14.6041 56.9604 13.0359 65.0112C14.2048 65.9743 16.4645 66.9581 19.926 68.0159L20.8357 68.2916L20.4323 69.1519C17.156 76.1326 16.0365 81.508 16.835 86.476L16.8308 86.4719Z" fill="#94B872"/>
<path d="M45.2515 52.7544L37.5053 58.7184C42.7408 67.716 48.2068 68.1276 53.9321 59.2617L45.2557 52.7544H45.2515Z" fill="white"/>
<path d="M45.7578 66.5136C45.7125 66.5136 45.6632 66.5136 45.6179 66.5136C42.5268 66.4437 39.6415 64.0276 36.7932 59.1337L36.431 58.5081L45.2474 51.7208L55.0393 59.0637L54.6236 59.7099C51.6684 64.291 48.7666 66.5177 45.7619 66.5177L45.7578 66.5136ZM38.5837 58.9238C40.9627 62.8134 43.3376 64.8137 45.6549 64.8672C47.9187 64.9207 50.3348 63.0974 52.8126 59.4506L45.2557 53.7829L38.5837 58.9197V58.9238Z" fill="#94B872"/>
<path d="M45.1034 60.1011C62.5024 60.1011 76.6071 46.8312 76.6071 30.462C76.6071 14.0928 62.5024 0.822876 45.1034 0.822876C27.7044 0.822876 13.5998 14.0928 13.5998 30.462C13.5998 46.8312 27.7044 60.1011 45.1034 60.1011Z" fill="white"/>
<path d="M45.1034 60.9246C27.2771 60.9246 12.7766 47.2596 12.7766 30.4623C12.7766 13.665 27.2812 0 45.1034 0C62.9256 0 77.4302 13.665 77.4302 30.4623C77.4302 47.2596 62.9297 60.9246 45.1034 60.9246ZM45.1034 1.64639C28.1868 1.64639 14.4229 14.5747 14.4229 30.4623C14.4229 46.35 28.1868 59.2782 45.1034 59.2782C62.02 59.2782 75.7838 46.35 75.7838 30.4623C75.7838 14.5747 62.02 1.64639 45.1034 1.64639Z" fill="#4E5E84"/>
<path d="M65.5269 38.563C69.164 38.563 72.1124 35.6145 72.1124 31.9774C72.1124 28.3403 69.164 25.3918 65.5269 25.3918C61.8898 25.3918 58.9413 28.3403 58.9413 31.9774C58.9413 35.6145 61.8898 38.563 65.5269 38.563Z" fill="#FF7885"/>
<path d="M23.8444 38.563C27.4815 38.563 30.4299 35.6145 30.4299 31.9774C30.4299 28.3403 27.4815 25.3918 23.8444 25.3918C20.2073 25.3918 17.2588 28.3403 17.2588 31.9774C17.2588 35.6145 20.2073 38.563 23.8444 38.563Z" fill="#FF7885"/>
<path d="M38.3368 40.5994C37.493 40.5994 36.1635 40.4142 35.1386 39.4182C34.2784 38.5785 33.8627 37.389 33.8997 35.8743C33.9821 32.6021 36.8879 31.4414 38.4108 31.2891C38.9788 31.2315 39.481 31.6431 39.5386 32.207C39.5962 32.7709 39.1846 33.273 38.6249 33.3348C38.3532 33.3636 36.0153 33.697 35.9577 35.9237C35.933 36.8416 36.1429 37.5207 36.5751 37.9446C37.1884 38.5415 38.1556 38.5579 38.5426 38.5373C40.901 38.4633 42.852 36.7757 44.9182 34.9935C46.9268 33.2566 49.0012 31.4661 51.5326 31.2809H51.5778H51.6231C55.0805 31.3467 56.3071 33.8575 56.3071 35.9854C56.3071 37.8541 54.9118 40.4842 51.8083 40.4842C51.2403 40.4842 50.7793 40.0232 50.7793 39.4552C50.7793 38.8872 51.2403 38.4262 51.8083 38.4262C53.8334 38.4262 54.2491 36.4999 54.2491 35.9854C54.2491 35.0223 53.9075 33.4047 51.6272 33.3389C49.7956 33.4912 48.0751 34.977 46.26 36.5493C44.0127 38.4921 41.6913 40.4965 38.6249 40.5953C38.5384 40.5994 38.4397 40.6036 38.3326 40.6036L38.3368 40.5994Z" fill="#4E5E84"/>
<path d="M38.9171 28.4123C40.1901 28.4123 41.222 27.3803 41.222 26.1073C41.222 24.8343 40.1901 23.8024 38.9171 23.8024C37.6441 23.8024 36.6122 24.8343 36.6122 26.1073C36.6122 27.3803 37.6441 28.4123 38.9171 28.4123Z" fill="#4E5E84"/>
<path d="M51.2938 28.4123C52.5668 28.4123 53.5988 27.3803 53.5988 26.1073C53.5988 24.8343 52.5668 23.8024 51.2938 23.8024C50.0209 23.8024 48.9889 24.8343 48.9889 26.1073C48.9889 27.3803 50.0209 28.4123 51.2938 28.4123Z" fill="#4E5E84"/>
<path d="M43.0578 30.5528H33.3729C32.9201 30.5528 32.5497 30.1824 32.5497 29.7296V25.8565C32.5497 25.4038 32.9201 25.0333 33.3729 25.0333C33.8256 25.0333 34.1961 25.4038 34.1961 25.8565V28.9065H42.2346V26.1652C42.2346 25.7125 42.605 25.342 43.0578 25.342H46.9309C47.3836 25.342 47.7541 25.7125 47.7541 26.1652V28.75H55.8667V26.3175C55.8667 25.8648 56.2371 25.4943 56.6899 25.4943C57.1426 25.4943 57.5131 25.8648 57.5131 26.3175V29.5732C57.5131 30.026 57.1426 30.3964 56.6899 30.3964H46.9309C46.4781 30.3964 46.1077 30.026 46.1077 29.5732V26.9884H43.881V29.7296C43.881 30.1824 43.5105 30.5528 43.0578 30.5528Z" fill="#4E5E84"/>
</svg>
