<svg width="24" height="24" viewBox="0 0 24 24" fill="none" xmlns="http://www.w3.org/2000/svg">
<path d="M19.0713 3C20.1363 3.00008 20.9998 3.86377 21 4.92871V15.8564C21 16.9215 20.1363 17.7851 19.0713 17.7852H17.1426V19.0713C17.1425 20.1363 16.2789 21 15.2139 21H4.92871C3.86376 20.9998 3.00008 20.1363 3 19.0713V9.10645C3.00038 8.04174 3.86395 7.17886 4.92871 7.17871H6.53516V4.92871C6.53531 3.86386 7.39903 3.00023 8.46387 3H19.0713ZM4.92871 8.46387C4.57403 8.46402 4.28553 8.75182 4.28516 9.10645V19.0713C4.28523 19.4262 4.57385 19.7137 4.92871 19.7139H15.2139C15.5689 19.7139 15.8564 19.4263 15.8564 19.0713V17.7852H8.46387C7.39894 17.7849 6.53516 16.9214 6.53516 15.8564V8.46387H4.92871ZM11.4326 9.83984C11.1922 9.58053 10.7871 9.56376 10.5264 9.80273L7.82129 12.2812V15.8564C7.82129 16.2113 8.10902 16.4998 8.46387 16.5H17.6006L11.4326 9.83984ZM8.46387 4.28516C8.10911 4.28538 7.82144 4.57394 7.82129 4.92871V10.5381L9.6582 8.85449C10.4404 8.13761 11.6549 8.18758 12.376 8.96582L19.3086 16.4521C19.5457 16.3575 19.7139 16.1273 19.7139 15.8564V4.92871C19.7137 4.57385 19.4262 4.28523 19.0713 4.28516H8.46387ZM16.8213 5.57129C17.7089 5.57129 18.4287 6.29111 18.4287 7.17871C18.4286 8.06625 17.7088 8.78613 16.8213 8.78613C15.9338 8.78606 15.2139 8.0662 15.2139 7.17871C15.2139 6.29116 15.9338 5.57136 16.8213 5.57129Z" fill="black"/>
</svg>
