<svg width="15" height="15" viewBox="0 0 15 15" fill="none" xmlns="http://www.w3.org/2000/svg">
<path d="M5.01961 5.78846L6.72867 3.73978C6.87864 3.56 6.96078 3.33331 6.96078 3.09919V2.73137C6.96078 1.8678 7.98171 1.41027 8.62628 1.98497L8.99883 2.31714C9.21164 2.50688 9.33333 2.77843 9.33333 3.06354V4.36538C9.33333 4.91767 9.78105 5.36538 10.3333 5.36538H11.767C12.4024 5.36538 12.8766 5.95014 12.7455 6.5718L11.8733 10.7064C11.7757 11.169 11.3676 11.5 10.8948 11.5H5.01961M5.01961 5.78846H3C2.44772 5.78846 2 6.23618 2 6.78846V10.5C2 11.0523 2.44772 11.5 3 11.5H5.01961M5.01961 5.78846V11.5" stroke="#4E4E4E"/>
</svg>
