<svg width="104" height="15" viewBox="0 0 104 15" fill="none" xmlns="http://www.w3.org/2000/svg">
<g clip-path="url(#clip0_228_2198)">
<path d="M10.9758 5.36024C10.4469 5.36024 10.0189 4.92075 10.0189 4.37763C10.0189 3.83451 10.4469 3.39502 10.9758 3.39502C11.2976 3.39502 11.3237 2.7858 11.3237 2.77866C11.3237 2.29986 10.6 2.22482 10.2538 2.21589C9.29864 2.2802 8.37656 2.88049 7.40229 3.51829C6.17749 4.31867 4.78915 5.22625 3.01807 5.26734C2.4509 5.29057 1.36703 5.21732 0.638062 4.47053C0.331862 4.15788 -0.0282705 3.5969 -0.000434152 2.70898C0.0552385 1.0832 1.28004 0.268531 1.99682 0.0434243C2.5031 -0.11558 3.0372 0.17563 3.19204 0.69552C3.34514 1.21005 3.06678 1.75495 2.56921 1.91932C2.45786 1.95862 1.93419 2.17658 1.91505 2.77687C1.90809 2.99304 1.96725 3.05557 1.98986 3.0788C2.136 3.22708 2.53615 3.31998 2.96065 3.30391C4.21329 3.27353 5.26237 2.58749 6.37582 1.86036C7.52581 1.10822 8.71582 0.331061 10.1859 0.252452H10.2172H10.2486C11.7361 0.273891 13.2375 1.06355 13.2375 2.78044C13.2375 2.96624 13.2096 3.62549 12.8426 4.25972C12.4337 4.96898 11.7709 5.36024 10.9758 5.36024Z" fill="#221F20"/>
<path d="M47.9989 0.577178C58.0061 -0.473323 58.5611 15.4378 48.4043 14.9876C39.8411 14.6071 39.5141 1.46867 47.9989 0.577178ZM48.1712 2.89257C42.5326 3.55717 42.9936 13.1117 49.1889 12.6651C55.1598 12.2363 54.6014 2.13506 48.1712 2.89257Z" fill="black"/>
<path d="M18.7022 0.577518C28.779 -0.480129 29.2418 15.54 19.0206 14.9862C10.5514 14.527 10.2626 1.46365 18.7022 0.577518ZM16.23 11.2987C18.4917 13.7016 22.5558 12.8334 23.7423 9.74974C25.2142 5.92649 22.1035 1.83526 18.0933 3.06978C14.7599 4.09705 13.8831 8.80465 16.23 11.2987Z" fill="black"/>
<path d="M40.5403 0.638672V14.715H38.1934V6.34139L34.0649 10.8846L30.5036 6.60401L30.1087 6.34139V14.715H27.7617V0.638672L34.1519 7.67595L40.5403 0.638672Z" fill="black"/>
<path d="M62.5781 0.818132C63.3854 0.898527 64.5754 1.33802 65.2226 1.85077C67.573 3.71058 67.0667 8.21987 64.1004 9.10422V9.23464L66.9693 14.7158H64.4049L61.8405 9.6384H59.4935V14.7158H57.0596V0.818132C58.8341 0.946764 60.8331 0.646621 62.5799 0.818132H62.5781ZM59.4918 7.58921H61.9692C62.1032 7.58921 62.853 7.3909 63.0165 7.32659C64.5823 6.70665 64.6815 4.08755 63.2201 3.28002C63.1001 3.21392 62.4894 2.95844 62.4041 2.95844H59.4918V7.591V7.58921Z" fill="black"/>
<path d="M88.6135 9.46038V0.818766H91.0474V14.8933L90.7395 14.8094C89.1545 13.1425 87.6027 11.4256 86.009 9.77124C85.0487 8.77255 83.6343 7.09854 82.6147 6.29816C82.5278 6.23027 82.5051 6.12665 82.3538 6.16596V14.7182H80.0068V0.550781L88.6135 9.4586V9.46038Z" fill="black"/>
<path d="M103.652 3.847C101.581 2.90012 98.9786 2.31055 96.8996 3.56472C93.6932 5.49957 94.0307 10.8664 97.5068 12.326C98.8238 12.8799 100.299 12.7066 101.653 12.3993V8.52423L101.783 8.39023H104V13.8696C99.7702 16.2261 93.7211 14.8933 92.4632 9.65691C90.7948 2.71074 97.9748 -1.58594 103.652 1.57628V3.84879V3.847Z" fill="black"/>
<path d="M79.4868 14.7147H76.8789L75.7584 12.008L70.3304 11.9669L69.0116 14.7147H66.5342L73.0096 0.550781L79.4868 14.7129V14.7147ZM74.8781 10.0821L73.0096 5.45133L71.1411 10.0821H74.8799H74.8781Z" fill="black"/>
<path d="M8.15779 2.95772C8.1317 2.95772 8.09168 2.84517 8.02731 2.86839V14.7169H5.59337V2.86839C5.529 2.84517 5.48899 2.95772 5.46289 2.95772" fill="black"/>
</g>
<defs>
<clipPath id="clip0_228_2198">
<rect width="104" height="15" fill="white"/>
</clipPath>
</defs>
</svg>
