<svg width="144" height="97" viewBox="0 0 144 97" fill="none" xmlns="http://www.w3.org/2000/svg">
<g clip-path="url(#clip0_114_6389)">
<path d="M46.517 18.692C51.6786 18.692 55.863 14.5077 55.863 9.346C55.863 4.18435 51.6786 0 46.517 0C41.3553 0 37.171 4.18435 37.171 9.346C37.171 14.5077 41.3553 18.692 46.517 18.692Z" fill="#111111"/>
<path d="M96.7007 18.692C101.862 18.692 106.047 14.5077 106.047 9.346C106.047 4.18435 101.862 0 96.7007 0C91.5391 0 87.3547 4.18435 87.3547 9.346C87.3547 14.5077 91.5391 18.692 96.7007 18.692Z" fill="#111111"/>
<path d="M49.5447 32.2896C49.5447 32.2896 37.7965 33.4771 37.5245 44.3097C37.2526 55.1424 45.1482 56.8285 49.8076 56.5928C67.167 56.0489 78.045 33.3864 93.3829 32.2896C103.998 32.489 105.693 40.7744 105.693 44.5998C105.693 48.4252 102.765 56.2211 94.0719 56.2211" stroke="#111111" stroke-width="9.97148" stroke-miterlimit="10" stroke-linecap="round"/>
</g>
<g clip-path="url(#clip1_114_6389)">
<path d="M15.1161 83.5505C14.3877 83.5505 13.7983 82.9396 13.7983 82.1847C13.7983 81.4298 14.3877 80.8189 15.1161 80.8189C15.5593 80.8189 15.5953 79.9721 15.5953 79.9622C15.5953 79.2967 14.5985 79.1924 14.1217 79.18C12.8063 79.2694 11.5365 80.1037 10.1947 80.9903C8.50795 82.1028 6.59596 83.3643 4.15686 83.4214C3.37577 83.4537 1.88308 83.3518 0.879161 82.3138C0.457469 81.8793 -0.0384983 81.0995 -0.000162705 79.8653C0.0765086 77.6056 1.76328 76.4732 2.75042 76.1603C3.44765 75.9393 4.18321 76.3441 4.39646 77.0667C4.6073 77.7819 4.22395 78.5393 3.5387 78.7677C3.38535 78.8224 2.66416 79.1253 2.63781 79.9597C2.62822 80.2602 2.70969 80.3471 2.74084 80.3794C2.9421 80.5855 3.49317 80.7146 4.07779 80.6923C5.80289 80.6501 7.24767 79.6965 8.7811 78.6858C10.3648 77.6403 12.0037 76.5601 14.0283 76.4509H14.0714H14.1145C16.1631 76.4807 18.2308 77.5783 18.2308 79.9647C18.2308 80.2229 18.1925 81.1393 17.6869 82.0208C17.1239 83.0067 16.211 83.5505 15.1161 83.5505Z" fill="#221F20"/>
<path d="M66.1026 76.9031C79.8843 75.4429 80.6486 97.5589 66.6609 96.9331C54.8679 96.4042 54.4174 78.1422 66.1026 76.9031ZM66.3398 80.1214C58.5745 81.0452 59.2094 94.3257 67.7415 93.7048C75.9645 93.1089 75.1954 79.0685 66.3398 80.1214Z" fill="black"/>
<path d="M25.7568 76.9027C39.6343 75.4326 40.2716 97.7 26.1952 96.9302C14.5316 96.292 14.1339 78.1344 25.7568 76.9027ZM22.3521 91.8047C25.4668 95.1447 31.0638 93.9379 32.6979 89.6518C34.7249 84.3376 30.4409 78.6509 24.9182 80.3668C20.3275 81.7947 19.1199 88.3381 22.3521 91.8047Z" fill="black"/>
<path d="M55.8311 76.9896V96.5553H52.5989V84.9162L46.9132 91.2311L42.0087 85.2812L41.4648 84.9162V96.5553H38.2326V76.9896L47.033 86.7712L55.8311 76.9896Z" fill="black"/>
<path d="M86.1809 77.238C87.2926 77.3497 88.9315 77.9606 89.8228 78.6733C93.0598 81.2584 92.3625 87.5261 88.2774 88.7553V88.9366L92.2283 96.5553H88.6967L85.165 89.4978H81.9328V96.5553H78.5809V77.238C81.0248 77.4168 83.7777 76.9996 86.1833 77.238H86.1809ZM81.9304 86.6495H85.3423C85.5268 86.6495 86.5595 86.3739 86.7847 86.2845C88.9411 85.4228 89.0776 81.7823 87.065 80.6599C86.8997 80.568 86.0587 80.2129 85.9413 80.2129H81.9304V86.652V86.6495Z" fill="black"/>
<path d="M122.037 89.2497V77.2382H125.389V96.8013L124.965 96.6846C122.782 94.3677 120.645 91.9813 118.45 89.6818C117.127 88.2937 115.179 85.9669 113.775 84.8544C113.656 84.76 113.624 84.616 113.416 84.6706V96.558H110.184V76.8657L122.037 89.2472V89.2497Z" fill="black"/>
<path d="M142.748 81.4474C139.896 80.1313 136.312 79.3118 133.449 81.055C129.033 83.7444 129.498 91.2041 134.285 93.2329C136.099 94.0028 138.13 93.7619 139.995 93.3348V87.9486L140.174 87.7623H143.227V95.3785C137.402 98.6539 129.071 96.8014 127.339 89.523C125.041 79.868 134.929 73.8958 142.748 78.2912V81.4499V81.4474Z" fill="black"/>
<path d="M109.467 96.5557H105.876L104.333 92.7935L96.8574 92.7364L95.0412 96.5557H91.6294L100.547 76.8684L109.467 96.5532V96.5557ZM103.12 90.1166L100.547 83.6799L97.9739 90.1166H103.123H103.12Z" fill="black"/>
<path d="M11.2347 80.2104C11.1988 80.2104 11.1437 80.0539 11.055 80.0862V96.5552H7.70307V80.0862C7.61442 80.0539 7.55931 80.2104 7.52337 80.2104" fill="black"/>
</g>
<defs>
<clipPath id="clip0_114_6389">
<rect width="78.1492" height="61.5966" fill="white" transform="translate(32.5388)"/>
</clipPath>
<clipPath id="clip1_114_6389">
<rect width="143.227" height="20.8495" fill="white" transform="translate(0 76.1007)"/>
</clipPath>
</defs>
</svg>
