<svg width="125" height="57" viewBox="0 0 125 57" fill="none" xmlns="http://www.w3.org/2000/svg">
<mask id="path-1-inside-1_329_2532" fill="white">
<path d="M102 0C114.703 1.03081e-06 125 10.2975 125 23C125 35.7025 114.703 46 102 46H69.5059L63.7324 56C62.9626 57.3333 61.0374 57.3333 60.2676 56L54.4941 46H23C10.2975 46 0 35.7025 0 23C0 10.2975 10.2975 2.41597e-08 23 0H102Z"/>
</mask>
<path d="M102 0C114.703 1.03081e-06 125 10.2975 125 23C125 35.7025 114.703 46 102 46H69.5059L63.7324 56C62.9626 57.3333 61.0374 57.3333 60.2676 56L54.4941 46H23C10.2975 46 0 35.7025 0 23C0 10.2975 10.2975 2.41597e-08 23 0H102Z" fill="#C5F598"/>
<path d="M102 0V-1V-1V0ZM102 46V47V46ZM69.5059 46V45H68.9285L68.6398 45.5L69.5059 46ZM63.7324 56L64.5984 56.5V56.5L63.7324 56ZM60.2676 56L59.4016 56.5L59.4016 56.5L60.2676 56ZM54.4941 46L55.3602 45.5L55.0715 45H54.4941V46ZM23 46V47V47V46ZM23 0V-1V0ZM102 0V1C114.15 1 124 10.8497 124 23H125H126C126 9.74517 115.255 -0.999999 102 -1V0ZM125 23H124C124 35.1503 114.15 45 102 45V46V47C115.255 47 126 36.2548 126 23H125ZM102 46V45H69.5059V46V47H102V46ZM69.5059 46L68.6398 45.5L62.8664 55.5L63.7324 56L64.5984 56.5L70.3719 46.5L69.5059 46ZM63.7324 56L62.8664 55.5C62.4815 56.1667 61.5185 56.1667 61.1336 55.5L60.2676 56L59.4016 56.5C60.5563 58.5 63.4437 58.5 64.5984 56.5L63.7324 56ZM60.2676 56L61.1336 55.5L55.3602 45.5L54.4941 46L53.6281 46.5L59.4016 56.5L60.2676 56ZM54.4941 46V45H23V46V47H54.4941V46ZM23 46V45C10.8497 45 1 35.1503 1 23H0H-1C-1 36.2548 9.74517 47 23 47V46ZM0 23H1C1 10.8497 10.8497 1 23 1V0V-1C9.74517 -1 -1 9.74517 -1 23H0ZM23 0V1H102V0V-1H23V0Z" fill="black" mask="url(#path-1-inside-1_329_2532)"/>
</svg>
