<svg width="26" height="35" viewBox="0 0 26 35" fill="none" xmlns="http://www.w3.org/2000/svg">
<g clip-path="url(#clip0_329_2523)">
<path d="M13.002 0.5C20.304 0.5 25.5 6.14983 25.5 13.2764C25.5 15.9007 24.501 19.3095 22.5664 22.9756C20.6363 26.6332 17.7929 30.5116 14.1504 34.0703L14.1494 34.0713C13.5642 34.6457 12.6176 34.6416 12.0322 34.0576C8.32271 30.3593 5.43296 26.4669 3.47363 22.8486C1.50936 19.2212 0.5 15.9064 0.5 13.3555C0.500028 10.4349 1.4857 7.21223 3.53809 4.72852C5.57951 2.25811 8.68986 0.500034 13.002 0.5ZM13.002 6.72461C9.9534 6.72468 7.48828 9.19964 7.48828 12.2539C7.48836 15.3084 9.95788 17.7831 13.002 17.7832C16.0505 17.7832 18.5155 15.3081 18.5156 12.2539C18.5156 9.1996 16.0506 6.72461 13.002 6.72461Z" fill="#C5F598" stroke="#94B872"/>
</g>
<defs>
<clipPath id="clip0_329_2523">
<rect width="26" height="35" fill="white"/>
</clipPath>
</defs>
</svg>
