<svg width="13" height="13" viewBox="0 0 13 13" fill="none" xmlns="http://www.w3.org/2000/svg">
<path d="M5.86035 0.742188C6.05468 0.419278 6.52344 0.419277 6.71777 0.742188L8.11133 3.05762C8.32076 3.40546 8.66206 3.65347 9.05762 3.74512L11.6904 4.35547C12.0575 4.44058 12.2021 4.88535 11.9551 5.16992L10.1836 7.21094C9.91751 7.51754 9.78729 7.9188 9.82227 8.32324L10.0557 11.0156C10.0882 11.3911 9.70932 11.6665 9.3623 11.5195L6.87402 10.4658C6.50003 10.3074 6.0781 10.3074 5.7041 10.4658L3.21582 11.5195C2.8688 11.6665 2.48988 11.3911 2.52246 11.0156L2.75586 8.32324C2.79084 7.9188 2.66061 7.51754 2.39453 7.21094L0.623047 5.16992C0.376032 4.88536 0.520645 4.44058 0.887695 4.35547L3.52051 3.74512C3.91606 3.65347 4.25736 3.40546 4.4668 3.05762L5.86035 0.742188Z" stroke="#4E4E4E"/>
</svg>
