<svg width="16" height="17" viewBox="0 0 16 17" fill="none" xmlns="http://www.w3.org/2000/svg">
<path fill-rule="evenodd" clip-rule="evenodd" d="M6.84668 0C10.6277 0.000175946 13.6933 3.06662 13.6934 6.84766C13.6932 8.67224 12.9772 10.3285 11.8135 11.5557L16 15.7432L15.5605 16.1836L15.1201 16.623L10.876 12.3799C9.7452 13.2049 8.35349 13.6943 6.84668 13.6943C3.0657 13.6943 0.000263915 10.6286 0 6.84766C9.53482e-06 3.06652 3.06554 9.53453e-06 6.84668 0ZM6.84668 1.24609C3.75303 1.2461 1.24513 3.754 1.24512 6.84766C1.24538 9.94109 3.75318 12.4492 6.84668 12.4492C9.94003 12.449 12.448 9.94099 12.4482 6.84766C12.4482 3.75411 9.94019 1.24627 6.84668 1.24609Z" fill="#111111"/>
</svg>
