<svg width="32" height="32" viewBox="0 0 32 32" fill="none" xmlns="http://www.w3.org/2000/svg">
<path d="M15.0732 9.32324C18.1108 9.32324 20.5732 11.7857 20.5732 14.8232C20.5732 16.2893 19.9976 17.6195 19.0625 18.6055L22.4268 21.9697L21.7197 22.6768L18.3105 19.2676C17.4021 19.9304 16.2839 20.3232 15.0732 20.3232C12.0357 20.3232 9.57324 17.8608 9.57324 14.8232C9.57324 11.7857 12.0357 9.32324 15.0732 9.32324ZM15.0732 10.3232C12.588 10.3232 10.5732 12.338 10.5732 14.8232C10.5732 17.3085 12.588 19.3232 15.0732 19.3232C17.5585 19.3232 19.5732 17.3085 19.5732 14.8232C19.5732 12.338 17.5585 10.3232 15.0732 10.3232Z" fill="#ACACAC"/>
</svg>
