<svg width="9" height="9" viewBox="0 0 9 9" fill="none" xmlns="http://www.w3.org/2000/svg">
<path d="M3.9585 0.74231C4.15283 0.4194 4.62159 0.419399 4.81592 0.74231L5.55029 1.96399C5.75973 2.31201 6.10185 2.55984 6.49756 2.65149L7.88623 2.97278C8.25339 3.05781 8.39793 3.5036 8.15088 3.78821L7.21631 4.86438C6.95006 5.17109 6.81988 5.57303 6.85498 5.97766L6.97803 7.39758C7.01061 7.77305 6.63169 8.0485 6.28467 7.90149L4.97217 7.34583C4.59819 7.1874 4.17622 7.1874 3.80225 7.34583L2.48975 7.90149C2.14273 8.0485 1.7638 7.77305 1.79639 7.39758L1.91943 5.97766C1.95453 5.57303 1.82435 5.17109 1.55811 4.86438L0.623535 3.78821C0.376482 3.50361 0.521026 3.05781 0.888184 2.97278L2.27686 2.65149C2.67256 2.55984 3.01468 2.31201 3.22412 1.96399L3.9585 0.74231Z" stroke="#4E4E4E"/>
</svg>
