<svg width="80" height="121" viewBox="0 0 80 121" fill="none" xmlns="http://www.w3.org/2000/svg">
<path d="M27.7093 68.0023C21.3131 60.5113 15.0486 53.4647 11.4389 55.1399C8.38893 49.4269 5.37604 44.8006 2.606 46.7721C0.152876 48.4679 0.576819 50.7152 1.83219 53.1272C3.69261 56.1524 4.91506 57.6095 5.55303 57.6218C1.12425 60.9722 0.86082 65.2405 4.31412 70.3278C6.14985 72.4805 8.23664 73.2461 10.5128 72.9621C14.3036 77.5802 18.1561 80.8359 22.1363 81.4862C18.9505 90.7719 17.4153 99.8229 17.7981 108.602C12.0851 111.545 8.55769 114.356 13.7685 116.661C23.4287 117.851 34.5007 119.637 37.6329 118.057L41.3538 112.945C44.0497 110.854 46.0501 110.434 47.0873 112.323L49.1 118.83C53.2654 120.255 64.3826 119.086 75.1335 118.057C80.3773 117.797 80.1427 114.99 73.8946 109.38C73.2649 104.799 72.4417 100.77 71.2604 97.7567C77.101 96.3902 79.3318 92.0273 78.2329 84.8943C77.3356 77.9136 73.0879 71.3157 64.4403 65.2158L27.7175 68.0064L27.7093 68.0023Z" fill="white"/>
<path d="M55.3234 120.312C52.5574 120.312 50.3101 120.115 48.8242 119.604L48.4291 119.468L46.3176 112.644C46.013 112.121 45.692 112.002 45.4738 111.957C44.9346 111.841 43.881 112.027 41.9423 113.517L38.1762 118.695L37.9992 118.785C35.1139 120.242 26.8491 119.172 18.0985 118.036C16.6085 117.843 15.1227 117.649 13.6656 117.472L13.5462 117.456L13.4351 117.406C11.4306 116.521 10.4387 115.472 10.4016 114.2C10.3481 112.356 12.2538 110.578 16.9543 108.108C16.6661 99.9093 18.0491 91.1628 21.062 82.0953C17.6334 81.2063 14.0525 78.4856 10.1588 73.8222C7.6851 73.991 5.51187 72.999 3.68849 70.8628L3.63498 70.7929C1.16951 67.1626 -0.633283 62.0341 4.14948 57.7164C3.47446 57.0661 2.53601 55.8437 1.13246 53.5634L1.10366 53.514C0.00469466 51.4025 -1.08604 48.3361 2.14088 46.1053C2.9188 45.5496 3.77492 45.3726 4.66397 45.5784C7.03066 46.1341 9.2574 49.3898 11.8381 54.152C15.7853 53.3206 21.3213 59.2764 28.0633 67.1544L64.6666 64.3761L64.9095 64.5448C73.3225 70.4801 78.0806 77.292 79.0437 84.7913C80.1674 92.0807 77.9159 96.6329 72.3388 98.3205C73.269 100.979 74.0346 104.478 74.6602 108.969C78.6033 112.545 80.1468 115.04 79.5212 116.809C79.0725 118.077 77.6484 118.756 75.1665 118.88L73.5859 119.032C66.7946 119.687 60.2419 120.316 55.3234 120.316V120.312ZM49.7503 118.168C53.821 119.279 63.7817 118.316 73.4295 117.39L75.0471 117.233C76.7264 117.147 77.776 116.793 77.9695 116.254C78.1012 115.879 78.1629 114.319 73.339 109.989L73.1126 109.788L73.0714 109.487C72.3841 104.474 71.5362 100.732 70.4866 98.053L70.1409 97.168L71.067 96.9499C76.3848 95.7069 78.4592 91.8008 77.4138 85.0177C76.5042 77.9464 72.1824 71.7478 64.2015 66.0554L27.3553 68.8542L27.0837 68.5373C22.2721 62.9067 15.0033 54.3907 11.7846 55.8889L11.0767 56.2182L10.7103 55.5308C9.45908 53.1889 6.5285 47.7023 4.2853 47.1754C3.86135 47.0766 3.48269 47.1631 3.08344 47.4471C1.35062 48.6448 1.20243 50.1266 2.54836 52.7238C4.65985 56.1524 5.44189 56.7121 5.62299 56.8027L7.93618 56.8521L6.04283 58.2844C2.08738 61.2726 1.73341 65.0511 4.96444 69.8338C6.52851 71.6531 8.31073 72.4146 10.4058 72.1511L10.8544 72.0935L11.1425 72.4434C15.2379 77.4319 18.8764 80.1238 22.2598 80.6753L23.2229 80.8317L22.906 81.7537C19.6873 91.1381 18.2426 100.16 18.6089 108.569L18.6336 109.096L18.1644 109.339C13.0606 111.969 12.0151 113.414 12.0398 114.159C12.0563 114.694 12.7436 115.299 13.9825 115.863C15.4025 116.04 16.8514 116.225 18.3043 116.414C25.8777 117.394 34.4389 118.505 37.0855 117.402L40.7487 112.368L40.8392 112.298C42.8725 110.722 44.4984 110.084 45.8072 110.356C46.651 110.533 47.3219 111.059 47.7994 111.932L47.8652 112.084L49.7503 118.176V118.168Z" fill="#4E5E84"/>
<path d="M23.0911 61.0884C17.0901 64.5746 13.645 70.7486 12.1344 78.9517C13.1552 79.9725 15.279 81.1002 19.679 82.4462C16.7855 88.616 14.9703 94.7488 16.1063 100.787C37.7728 106.343 57.5295 106.891 74.5408 100.231C72.7709 93.8721 70.857 88.1386 68.0293 86.4181C72.4129 86.1547 75.895 82.936 78.5909 77.1283C74.9112 71.5594 70.5442 67.2418 65.0947 64.8998L23.0953 61.0884H23.0911Z" fill="#C5F598"/>
<path d="M47.0873 105.936C37.5629 105.936 27.2112 104.487 15.9006 101.585L15.3943 101.454L15.2996 100.939C14.3241 95.7449 15.3531 90.0114 18.543 82.9525C14.9539 81.8 12.723 80.7052 11.5582 79.5362L11.2536 79.2316L11.3318 78.8077C12.9494 70.016 16.769 63.8173 22.6837 60.3805L22.9101 60.2488L65.3005 64.0972L65.4198 64.1507C70.6636 66.4022 75.1953 70.5017 79.2783 76.6797L79.5335 77.0625L79.34 77.4782C76.854 82.8372 73.6929 86.0189 69.9186 86.9614C72.0383 89.3446 73.6147 93.831 75.3393 100.013L75.5369 100.729L74.8454 101.001C66.4365 104.294 57.2332 105.94 47.0914 105.94L47.0873 105.936ZM16.8266 100.12C39.2669 105.804 57.8341 105.677 73.5489 99.7333C71.9272 93.9998 70.0791 88.6284 67.6054 87.122L65.3581 85.7555L67.9841 85.5991C71.8243 85.3686 75.0759 82.545 77.6484 77.2025C73.8452 71.5595 69.6675 67.8016 64.8889 65.7148L23.2846 61.9404C17.9585 65.1303 14.5999 70.6087 13.0317 78.6595C14.2007 79.6227 16.4603 80.6064 19.9219 81.6642L20.8315 81.94L20.4281 82.8002C17.1518 89.7809 16.0323 95.1563 16.8308 100.124L16.8266 100.12Z" fill="#94B872"/>
<path d="M45.2475 66.4019L37.5012 72.3659C42.7367 81.3634 48.2027 81.775 53.928 72.9092L45.2516 66.4019H45.2475Z" fill="white"/>
<path d="M45.7537 80.1657C45.7084 80.1657 45.659 80.1657 45.6138 80.1657C42.5227 80.0957 39.6374 77.6796 36.7891 72.7857L36.4269 72.1601L45.2433 65.3729L55.0352 72.7158L54.6195 73.362C51.6642 77.943 48.7625 80.1698 45.7578 80.1698L45.7537 80.1657ZM38.5837 72.5758C40.9627 76.4654 43.3376 78.4658 45.6549 78.5193C47.9228 78.5604 50.3348 76.7494 52.8126 73.1027L45.2557 67.435L38.5837 72.5717V72.5758Z" fill="#94B872"/>
<path d="M45.0993 73.7494C62.4983 73.7494 76.6029 60.4795 76.6029 44.1103C76.6029 27.7411 62.4983 14.4712 45.0993 14.4712C27.7003 14.4712 13.5956 27.7411 13.5956 44.1103C13.5956 60.4795 27.7003 73.7494 45.0993 73.7494Z" fill="white"/>
<path d="M45.0993 74.5767C27.273 74.5767 12.7724 60.9116 12.7724 44.1144C12.7724 27.3171 27.273 13.652 45.0993 13.652C62.9255 13.652 77.4261 27.3171 77.4261 44.1144C77.4261 60.9116 62.9255 74.5767 45.0993 74.5767ZM45.0993 15.2943C28.1826 15.2943 14.4188 28.2226 14.4188 44.1102C14.4188 59.9979 28.1826 72.9262 45.0993 72.9262C62.0159 72.9262 75.7797 59.9979 75.7797 44.1102C75.7797 28.2226 62.0159 15.2943 45.0993 15.2943Z" fill="#4E5E84"/>
<path d="M65.5227 52.2145C69.1598 52.2145 72.1083 49.2661 72.1083 45.629C72.1083 41.9918 69.1598 39.0434 65.5227 39.0434C61.8856 39.0434 58.9372 41.9918 58.9372 45.629C58.9372 49.2661 61.8856 52.2145 65.5227 52.2145Z" fill="#FF7885"/>
<path d="M23.8403 52.2145C27.4774 52.2145 30.4258 49.2661 30.4258 45.629C30.4258 41.9918 27.4774 39.0434 23.8403 39.0434C20.2032 39.0434 17.2547 41.9918 17.2547 45.629C17.2547 49.2661 20.2032 52.2145 23.8403 52.2145Z" fill="#FF7885"/>
<path d="M38.3326 54.2515C37.4889 54.2515 36.1594 54.0663 35.1345 53.0702C34.2743 52.2305 33.8586 51.041 33.8956 49.5263C33.9779 46.2542 36.8838 45.0934 38.4067 44.9412C38.9747 44.8835 39.4769 45.2951 39.5345 45.859C39.5921 46.4229 39.1805 46.9251 38.6208 46.9868C38.3491 47.0156 36.0112 47.349 35.9536 49.5757C35.9289 50.4936 36.1388 51.1727 36.571 51.5967C37.1843 52.1935 38.1515 52.21 38.5384 52.1894C40.8969 52.1153 42.8479 50.4277 44.9141 48.6455C46.9227 46.9086 48.9971 45.1181 51.5284 44.9329H51.5737H51.619C55.0764 44.9988 56.303 47.5095 56.303 49.6375C56.303 51.5061 54.9077 54.1362 51.8042 54.1362C51.2362 54.1362 50.7752 53.6752 50.7752 53.1072C50.7752 52.5392 51.2362 52.0783 51.8042 52.0783C53.8293 52.0783 54.245 50.152 54.245 49.6375C54.245 48.6743 53.9034 47.0568 51.6231 46.9909C49.7915 47.1432 48.071 48.6291 46.2559 50.2014C44.0086 52.1441 41.6872 54.1486 38.6208 54.2474C38.5343 54.2515 38.4355 54.2556 38.3285 54.2556L38.3326 54.2515Z" fill="#4E5E84"/>
<path d="M38.913 42.0649C40.186 42.0649 41.2179 41.0329 41.2179 39.76C41.2179 38.487 40.186 37.455 38.913 37.455C37.64 37.455 36.608 38.487 36.608 39.76C36.608 41.0329 37.64 42.0649 38.913 42.0649Z" fill="#4E5E84"/>
<path d="M51.2897 42.0649C52.5627 42.0649 53.5947 41.0329 53.5947 39.76C53.5947 38.487 52.5627 37.455 51.2897 37.455C50.0167 37.455 48.9848 38.487 48.9848 39.76C48.9848 41.0329 50.0167 42.0649 51.2897 42.0649Z" fill="#4E5E84"/>
<path d="M22.873 11.0256L31.319 11.4125C31.319 11.4125 33.1794 -2.99754 51.0757 0.566894C64.4032 3.2217 61.6908 19.4716 61.6908 19.4716L22.0992 16.6809C20.5269 14.6229 20.7039 12.7296 22.873 11.0256Z" fill="#4E5E84"/>
<path d="M17.2547 82.6596C18.7077 74.8311 22.1157 69.0234 27.3059 65.0515C30.6275 65.7677 32.8584 67.3812 33.4634 70.3405C29.3228 73.8885 25.4702 78.3708 21.9017 83.7627C20.0166 85.1086 18.5019 84.5653 17.2547 82.6596Z" fill="#393C3B"/>
<path d="M60.6617 69.7602C63.1313 65.7801 66.0207 64.393 69.5522 66.9696C70.1244 78.1774 71.2727 84.2855 72.9809 85.4462C72.8491 86.7674 71.9683 87.6688 70.4825 88.2368C65.9919 87.7347 63.4112 78.3667 60.6617 69.7602Z" fill="#393C3B"/>
</svg>
