<svg width="24" height="24" viewBox="0 0 24 24" fill="none" xmlns="http://www.w3.org/2000/svg">
<path fill-rule="evenodd" clip-rule="evenodd" d="M5.5 12C5.5 13.7239 6.18482 15.3772 7.40381 16.5962C8.62279 17.8152 10.2761 18.5 12 18.5C13.7239 18.5 15.3772 17.8152 16.5962 16.5962C17.8152 15.3772 18.5 13.7239 18.5 12C18.5 10.2761 17.8152 8.62279 16.5962 7.40381C15.3772 6.18482 13.7239 5.5 12 5.5C10.2761 5.5 8.62279 6.18482 7.40381 7.40381C6.18482 8.62279 5.5 10.2761 5.5 12ZM12 4C9.87827 4 7.84344 4.84285 6.34315 6.34315C4.84285 7.84344 4 9.87827 4 12C4 14.1217 4.84285 16.1566 6.34315 17.6569C7.84344 19.1571 9.87827 20 12 20C14.1217 20 16.1566 19.1571 17.6569 17.6569C19.1571 16.1566 20 14.1217 20 12C20 9.87827 19.1571 7.84344 17.6569 6.34315C16.1566 4.84285 14.1217 4 12 4ZM11.25 16V14.5H12.75V16H11.25ZM11.25 8V13H12.75V8H11.25Z" fill="#FF6800"/>
</svg>
