<svg width="38" height="30" viewBox="0 0 38 30" fill="none" xmlns="http://www.w3.org/2000/svg">
<g clip-path="url(#clip0_228_2208)">
<path d="M29.5202 7.18359H7.90918V20.8142H29.5202V7.18359Z" fill="#C5F598"/>
<path d="M29.5628 22.6928H8.2239C6.93966 22.6928 5.89355 21.6466 5.89355 20.3622V7.77786C5.89355 6.49348 6.93966 5.44727 8.2239 5.44727H29.5628C30.847 5.44727 31.8931 6.49348 31.8931 7.77786V20.3622C31.8931 21.6466 30.847 22.6928 29.5628 22.6928ZM8.44503 20.1411H29.3459V7.99476H8.44503V20.1411Z" fill="#111111"/>
<path d="M18.715 7.87727L13.0167 2.17838C12.5192 1.68079 12.5192 0.872736 13.0167 0.375146C13.5142 -0.122444 14.3222 -0.122444 14.8198 0.375146L18.715 4.27081L22.6103 0.375146C23.1078 -0.122444 23.9158 -0.122444 24.4133 0.375146C24.9108 0.872736 24.9108 1.68079 24.4133 2.17838L18.715 7.87727Z" fill="#111111"/>
<path opacity="0.7" d="M8.34333 8.02524L0 30H38L29.359 8.08478L8.34333 8.02524Z" fill="url(#paint0_linear_228_2208)"/>
</g>
<defs>
<linearGradient id="paint0_linear_228_2208" x1="19" y1="29.579" x2="19" y2="8.74823" gradientUnits="userSpaceOnUse">
<stop stop-color="#C5F598" stop-opacity="0.2"/>
<stop offset="1" stop-color="#C5F598"/>
</linearGradient>
<clipPath id="clip0_228_2208">
<rect width="38" height="30" fill="white"/>
</clipPath>
</defs>
</svg>
