<svg width="22" height="28" viewBox="0 0 22 28" fill="none" xmlns="http://www.w3.org/2000/svg">
<g clip-path="url(#clip0_228_2213)">
<path d="M8.65065 11.6706H1.14882C0.513142 11.6706 0 11.0577 0 10.2985V3.06743C0 2.30819 0.513142 1.69531 1.14882 1.69531C1.78451 1.69531 2.29765 2.30819 2.29765 3.06743V8.92637H7.50183V3.15433C7.50183 2.39509 8.01497 1.78221 8.65065 1.78221C9.28633 1.78221 9.79948 2.39509 9.79948 3.15433V10.2985C9.79948 11.0577 9.28633 11.6706 8.65065 11.6706Z" fill="#111111"/>
<path d="M4.82461 27.4685C4.18892 27.4685 3.67578 26.8556 3.67578 26.0964V2.63774C3.67578 1.8785 4.18892 1.26562 4.82461 1.26562C5.46029 1.26562 5.97343 1.8785 5.97343 2.63774V26.0964C5.97343 26.8556 5.46029 27.4685 4.82461 27.4685Z" fill="#111111"/>
<path d="M16.8646 27.4685C16.229 27.4685 15.7158 26.8556 15.7158 26.0964V2.63774C15.7158 1.8785 16.229 1.26562 16.8646 1.26562C17.5003 1.26562 18.0135 1.8785 18.0135 2.63774V26.0964C18.0135 26.8556 17.5003 27.4685 16.8646 27.4685Z" fill="#111111"/>
<path d="M21.9962 6.12879C21.9962 2.74395 19.6988 0 16.8648 0C14.0308 0 11.7334 2.74395 11.7334 6.12879V7.87138C11.7334 11.2562 14.0308 14.0002 16.8648 14.0002C19.6988 14.0002 21.9962 11.2562 21.9962 7.87138V6.12879Z" fill="#111111"/>
</g>
<defs>
<clipPath id="clip0_228_2213">
<rect width="22" height="27.4698" fill="white"/>
</clipPath>
</defs>
</svg>
