<svg width="31" height="21" viewBox="0 0 31 21" fill="none" xmlns="http://www.w3.org/2000/svg">
<g clip-path="url(#clip0_228_2218)">
<path d="M28.4334 21H2.56655C1.15214 21 0 19.885 0 18.5115V2.48845C0 1.11504 1.15214 0 2.56655 0H28.4288C29.8432 0 31 1.11504 31 2.48845V18.5161C31 19.885 29.8479 21.0045 28.4288 21.0045L28.4334 21ZM2.81009 18.2804H28.1899V2.71962H2.81009V18.2804Z" fill="#111111"/>
<path d="M15.5446 17.1978C11.9758 17.1978 9.06738 14.2334 9.06738 10.5891C9.06738 6.94485 11.9711 3.98047 15.5446 3.98047C19.1181 3.98047 22.0219 6.94485 22.0219 10.5891C22.0219 14.2334 19.1181 17.1978 15.5446 17.1978ZM15.5446 6.70462C13.5214 6.70462 11.8775 8.44971 11.8775 10.5937C11.8775 12.7376 13.5214 14.4827 15.5446 14.4827C17.5679 14.4827 19.2118 12.7376 19.2118 10.5937C19.2118 8.44971 17.5679 6.70462 15.5446 6.70462Z" fill="#111111"/>
<path d="M24.972 7.46995C25.9058 7.46995 26.6627 6.68661 26.6627 5.72033C26.6627 4.75404 25.9058 3.9707 24.972 3.9707C24.0382 3.9707 23.2812 4.75404 23.2812 5.72033C23.2812 6.68661 24.0382 7.46995 24.972 7.46995Z" fill="#C5F598"/>
</g>
<defs>
<clipPath id="clip0_228_2218">
<rect width="31" height="21" fill="white"/>
</clipPath>
</defs>
</svg>
