<svg width="21" height="35" viewBox="0 0 21 35" fill="none" xmlns="http://www.w3.org/2000/svg">
<g clip-path="url(#clip0_228_2225)">
<path d="M10.7063 27.5133C7.19666 27.5133 4.34277 24.439 4.34277 20.6583V6.85501C4.34277 3.07431 7.19666 0 10.7063 0C14.2159 0 17.0698 3.07431 17.0698 6.85501V20.6583C17.0698 24.439 14.2159 27.5133 10.7063 27.5133ZM10.7063 2.66559C8.56174 2.66559 6.81724 4.54483 6.81724 6.85501V20.6583C6.81724 22.9685 8.56174 24.8477 10.7063 24.8477C12.8508 24.8477 14.5953 22.9685 14.5953 20.6583V6.85501C14.5953 4.54483 12.8508 2.66559 10.7063 2.66559Z" fill="#111111"/>
<path d="M19.7632 14.7363H1.41504V31.8983H19.7632V14.7363Z" fill="#C5F598"/>
<path d="M18.74 34.3376H2.26414C1.01866 34.3376 0 33.2447 0 31.903V15.3897C0 14.048 1.01453 12.9551 2.26414 12.9551H18.74C19.9855 12.9551 21 14.048 21 15.3897V31.903C21 33.2447 19.9855 34.3376 18.74 34.3376ZM2.47447 31.672H18.5255V15.6162H2.47447V31.672Z" fill="#111111"/>
</g>
<defs>
<clipPath id="clip0_228_2225">
<rect width="21" height="34.3373" fill="white"/>
</clipPath>
</defs>
</svg>
