<svg width="7" height="7" viewBox="0 0 7 7" fill="none" xmlns="http://www.w3.org/2000/svg">
<path fill-rule="evenodd" clip-rule="evenodd" d="M5.74606 0.146447C5.94132 -0.0488155 6.2588 -0.0488155 6.45406 0.146447C6.64877 0.341666 6.64892 0.658356 6.45406 0.853478L4.0068 3.29977L6.45406 5.74606C6.64909 5.94134 6.64925 6.25888 6.45406 6.45406C6.25888 6.64925 5.94134 6.64909 5.74606 6.45406L3.29977 4.0068L0.853478 6.45406C0.658356 6.64892 0.341666 6.64877 0.146447 6.45406C-0.0488155 6.2588 -0.0488155 5.94132 0.146447 5.74606L2.59176 3.29977L0.146447 0.853478C-0.0488155 0.658216 -0.0488155 0.341709 0.146447 0.146447C0.341709 -0.0488155 0.658216 -0.0488155 0.853478 0.146447L3.29977 2.59176L5.74606 0.146447Z" fill="#4E4E4E"/>
</svg>
