<svg width="21" height="16" viewBox="0 0 21 16" fill="none" xmlns="http://www.w3.org/2000/svg">
<g clip-path="url(#clip0_228_2679)">
<path d="M3.61979 4.84016C4.95636 4.84016 6.03987 3.75665 6.03987 2.42008C6.03987 1.08351 4.95636 0 3.61979 0C2.28321 0 1.19971 1.08351 1.19971 2.42008C1.19971 3.75665 2.28321 4.84016 3.61979 4.84016Z" fill="white"/>
<path d="M16.6144 4.84016C17.951 4.84016 19.0345 3.75665 19.0345 2.42008C19.0345 1.08351 17.951 0 16.6144 0C15.2778 0 14.1943 1.08351 14.1943 2.42008C14.1943 3.75665 15.2778 4.84016 16.6144 4.84016Z" fill="white"/>
<path d="M4.40386 8.3613C4.40386 8.3613 1.36174 8.6688 1.29132 11.4738C1.2209 14.2789 3.26541 14.7155 4.47193 14.6544C8.96704 14.5136 11.7838 8.64532 15.7555 8.3613C18.5042 8.41294 18.9431 10.5584 18.9431 11.549C18.9431 12.5395 18.1849 14.5582 15.9339 14.5582" stroke="white" stroke-width="2.58205" stroke-miterlimit="10" stroke-linecap="round"/>
</g>
<defs>
<clipPath id="clip0_228_2679">
<rect width="20.2362" height="15.95" fill="white"/>
</clipPath>
</defs>
</svg>
